<?xml version="1.0" standalone="no"?>
<!DOCTYPE svg PUBLIC "-//W3C//DTD SVG 20010904//EN"
 "http://www.w3.org/TR/2001/REC-SVG-20010904/DTD/svg10.dtd">
<svg version="1.0" xmlns="http://www.w3.org/2000/svg"
 width="48.000000pt" height="48.000000pt" viewBox="0 0 48.000000 48.000000"
 preserveAspectRatio="xMidYMid meet">

<g transform="translate(0.000000,48.000000) scale(0.100000,-0.100000)"
fill="#000000" stroke="none">
<path d="M67 413 c-4 -3 -7 -21 -7 -39 l0 -33 141 -3 141 -3 -21 -27 c-12 -14
-21 -33 -21 -42 0 -9 -6 -16 -12 -16 -21 -1 -73 -87 -70 -115 3 -21 -1 -25
-21 -25 -15 0 -31 -10 -41 -25 l-17 -26 138 3 138 3 0 175 c0 172 0 175 -22
178 -15 2 -22 -3 -25 -18 -4 -27 -22 -27 -26 0 -3 19 -10 20 -103 20 -99 0
-99 0 -99 -25 0 -16 -6 -25 -15 -25 -9 0 -15 9 -15 25 0 18 -5 25 -18 25 -10
0 -22 -3 -25 -7z m313 -143 c0 -13 -7 -20 -20 -20 -13 0 -20 7 -20 20 0 13 7
20 20 20 13 0 20 -7 20 -20z m-80 -70 c0 -13 -7 -20 -20 -20 -13 0 -20 7 -20
20 0 13 7 20 20 20 13 0 20 -7 20 -20z m80 0 c0 -13 -7 -20 -20 -20 -13 0 -20
7 -20 20 0 13 7 20 20 20 13 0 20 -7 20 -20z m-80 -70 c0 -13 -7 -20 -20 -20
-13 0 -20 7 -20 20 0 13 7 20 20 20 13 0 20 -7 20 -20z"/>
</g>
</svg>
