<?xml version="1.0" standalone="no"?>
<!DOCTYPE svg PUBLIC "-//W3C//DTD SVG 20010904//EN"
 "http://www.w3.org/TR/2001/REC-SVG-20010904/DTD/svg10.dtd">
<svg version="1.0" xmlns="http://www.w3.org/2000/svg"
 width="48.000000pt" height="48.000000pt" viewBox="0 0 48.000000 48.000000"
 preserveAspectRatio="xMidYMid meet">

<g transform="translate(0.000000,48.000000) scale(0.100000,-0.100000)"
fill="#000000" stroke="none">
<path d="M142 380 c-79 -51 -92 -63 -82 -75 17 -21 30 -19 30 5 0 19 7 20 150
20 143 0 150 -1 150 -20 0 -23 13 -26 29 -7 8 11 7 18 -7 29 -19 16 -166 108
-173 108 -2 0 -46 -27 -97 -60z"/>
<path d="M285 119 c-9 -17 -14 -33 -12 -35 3 -3 38 -4 78 -2 l74 3 -56 33
c-31 17 -59 32 -62 32 -4 0 -14 -14 -22 -31z"/>
</g>
</svg>
