<?xml version="1.0" standalone="no"?>
<!DOCTYPE svg PUBLIC "-//W3C//DTD SVG 20010904//EN"
 "http://www.w3.org/TR/2001/REC-SVG-20010904/DTD/svg10.dtd">
<svg version="1.0" xmlns="http://www.w3.org/2000/svg"
 width="94.000000pt" height="94.000000pt" viewBox="0 0 94.000000 94.000000"
 preserveAspectRatio="xMidYMid meet">

<g transform="translate(0.000000,94.000000) scale(0.100000,-0.100000)"
fill="#000000" stroke="none">
<path d="M712 690 c0 -14 2 -19 5 -12 2 6 2 18 0 25 -3 6 -5 1 -5 -13z"/>
<path d="M515 669 c47 -11 103 -48 132 -88 104 -139 -20 -341 -201 -330 -39 3
-48 -2 -104 -51 -34 -29 -58 -58 -55 -64 4 -6 -11 0 -32 13 -24 14 -34 16 -26
7 7 -9 37 -27 66 -41 l52 -26 32 30 c35 33 85 47 123 36 12 -4 40 -20 60 -36
l38 -30 47 25 c27 13 58 32 71 42 21 17 22 22 11 52 -23 67 30 154 102 169 30
6 39 25 39 88 0 66 -8 81 -49 94 -42 12 -91 55 -91 79 0 10 -11 4 -30 -18 -16
-18 -30 -37 -30 -42 0 -5 -15 8 -32 28 -36 41 -99 74 -138 73 -18 -1 -13 -4
15 -10z"/>
<path d="M459 584 c-15 -19 -79 -61 -93 -62 -30 -2 -35 -83 -7 -128 44 -72
143 -81 206 -18 44 44 53 90 29 140 -31 62 -108 101 -135 68z"/>
</g>
</svg>
